Coordinates
version=1
nRows=29
nColumns=24
inDegrees=yes

Units are S.I. units (second, meters, Newtons, ...)
Angles are in degrees.

endheader
time	pelvis_tilt	pelvis_list	pelvis_rotation	pelvis_tx	pelvis_ty	pelvis_tz	hip_flexion_r	hip_adduction_r	hip_rotation_r	knee_angle_r	ankle_angle_r	subtalar_angle_r	mtp_angle_r	hip_flexion_l	hip_adduction_l	hip_rotation_l	knee_angle_l	ankle_angle_l	subtalar_angle_l	mtp_angle_l	lumbar_extension	lumbar_bending	lumbar_rotation
      5.25000000	      2.63994919	     -2.42915479	     -7.24424722	     -2.47181786	      0.72900242	      0.07306961	    -24.00932599	      3.71050206	     14.80054553	     -6.06069233	     15.57176525	     -9.01269714	      0.00000000	     12.90312336	     -5.01650818	     -5.78386520	      5.56247337	      1.42729173	    -18.91642384	      0.00000000	    -18.33231565	     -2.35075788	      6.06426648
      5.26000000	      2.86205000	     -1.88926429	     -7.53996292	     -2.45863112	      0.72874535	      0.07173698	    -24.10650650	      2.96741190	     14.59918073	     -8.03631663	     14.92240335	     -8.91818823	      0.00000000	     12.37994916	     -4.39943962	     -3.29612050	      4.79662295	     -1.19487457	    -21.35244195	      0.00000000	    -18.38708408	     -3.05758775	      5.73471814
      5.27000000	      2.98233058	     -1.19307610	     -7.67741815	     -2.44543776	      0.72871812	      0.07020791	    -23.86292969	      2.18399651	     14.00172717	    -10.33567059	     14.03235790	     -8.75763820	      0.00000000	     12.22012737	     -3.54984443	     -0.85957240	      3.37314108	     -3.86262433	    -23.81428031	      0.00000000	    -18.31694451	     -3.88023674	      5.30054513
      5.28000000	      3.22546283	     -0.29682659	     -7.72253302	     -2.43223304	      0.72917279	      0.06858840	    -23.50960569	      1.25924279	     13.17383871	    -12.96328750	     12.78543007	     -8.67013541	      0.00000000	     12.15895874	     -2.37096569	      0.81708279	      1.42450021	     -5.79781959	    -25.37721889	      0.00000000	    -18.39201514	     -4.92967687	      4.72540746
      5.29000000	      3.54870221	      0.68713738	     -7.69721955	     -2.41905829	      0.73005889	      0.06695051	    -23.04799555	      0.30407160	     12.33596133	    -15.83439463	     10.87392095	     -8.98003993	      0.00000000	     12.25202584	     -1.01703329	      1.36598359	     -1.00525633	     -6.44870626	    -25.41874932	      0.00000000	    -18.57361306	     -6.07964697	      4.12630744
      5.30000000	      3.79690863	      1.62427839	     -7.61281554	     -2.40597720	      0.73106590	      0.06526990	    -22.17643051	     -0.54580683	     11.33224326	    -19.18190058	      8.69466309	     -9.19826763	      0.00000000	     12.40907613	      0.29850919	      1.69147845	     -3.45780134	     -6.67045975	    -25.59411120	      0.00000000	    -18.69168378	     -7.13689169	      3.54846337
      5.31000000	      4.06688909	      2.46461931	     -7.57573078	     -2.39299460	      0.73230470	      0.06368368	    -21.06726477	     -1.31917120	     10.38808693	    -22.82359358	      5.97100072	     -9.44189965	      0.00000000	     12.49931004	      1.47707197	      1.12611667	     -5.84922126	     -5.77353780	    -24.72919522	      0.00000000	    -18.84807127	     -8.08906058	      3.03290368
      5.32000000	      4.28856249	      3.13413612	     -7.63068323	     -2.38016022	      0.73361873	      0.06221777	    -19.65561627	     -1.92549080	      9.74626690	    -26.71530049	      2.70873446	    -10.00262672	      0.00000000	     12.35334090	      2.42705757	      0.49974634	     -7.76685422	     -4.65880517	    -24.08254071	      0.00000000	    -18.94961276	     -8.84718826	      2.69677919
      5.33000000	      4.54270810	      3.70968936	     -7.81787803	     -2.36750335	      0.73502191	      0.06087600	    -18.00607246	     -2.49082831	      9.27660891	    -30.82735882	     -0.67010260	    -10.54549110	      0.00000000	     11.87610159	      3.25011182	     -0.29853026	     -9.15695857	     -3.21285015	    -23.40494824	      0.00000000	    -19.08166626	     -9.51216078	      2.44874729
      5.34000000	      4.73144870	      4.19653197	     -8.18593594	     -2.35509158	      0.73636957	      0.05968251	    -15.99642284	     -3.01732394	      9.03360196	    -35.14006098	     -3.88768639	    -10.92730937	      0.00000000	     11.11288668	      3.97167212	     -0.96556159	     -9.90383517	     -2.03616972	    -23.35017595	      0.00000000	    -19.11976218	    -10.08248874	      2.30809614
      5.35000000	      4.99750943	      4.60384717	     -8.64602342	     -2.34290746	      0.73781244	      0.05864516	    -13.89436654	     -3.47540048	      8.95298317	    -39.45021627	     -6.87088129	    -11.52907382	      0.00000000	      9.99930596	      4.61218656	     -1.88464688	    -10.13885861	     -0.42475813	    -22.61077942	      0.00000000	    -19.24532263	    -10.58080615	      2.15294246
      5.36000000	      5.16371264	      4.96370275	     -9.23969486	     -2.33101302	      0.73910412	      0.05775726	    -11.47777482	     -3.88050643	      9.04210617	    -43.77960683	     -9.19498947	    -12.02918661	      0.00000000	      8.73003795	      5.23207561	     -2.48413392	     -9.87568776	      0.59282766	    -22.57362028	      0.00000000	    -19.23715128	    -11.01932023	      2.08425574
      5.37000000	      5.39934169	      5.27585802	     -9.85127471	     -2.31930792	      0.74045665	      0.05703960	     -9.09650433	     -4.18503800	      9.22490478	    -47.86948978	    -10.93142979	    -12.84473522	      0.00000000	      7.26340063	      5.81834107	     -3.29600601	     -9.34949263	      1.81973798	    -22.02556040	      0.00000000	    -19.31064413	    -11.41862971	      1.84185645
      5.38000000	      5.62015224	      5.54945624	    -10.46469423	     -2.30776198	      0.74177063	      0.05643234	     -6.67941148	     -4.40041042	      9.42588710	    -51.68194065	    -11.80271446	    -13.69224456	      0.00000000	      5.64194795	      6.41726180	     -3.70207310	     -8.49760029	      2.50250895	    -22.07005440	      0.00000000	    -19.35632855	    -11.76697960	      1.52481133
      5.39000000	      5.74145364	      5.65764830	    -10.97578107	     -2.29637437	      0.74305537	      0.05594587	     -4.25405347	     -4.30836215	      9.62751861	    -55.07331640	    -12.29727288	    -15.01537158	      0.00000000	      4.13987169	      6.81823741	     -4.16949325	     -7.69453134	      3.27735986	    -21.74577062	      0.00000000	    -19.32142164	    -11.90549444	      1.11991257
      5.40000000	      5.97866937	      5.74315917	    -11.37755933	     -2.28503243	      0.74445835	      0.05547460	     -2.06113981	     -4.19538502	      9.63607764	    -57.99993477	    -11.99076329	    -16.26390550	      0.00000000	      2.47378036	      7.24195871	     -4.42231937	     -6.81274684	      3.88467412	    -21.53974008	      0.00000000	    -19.44254043	    -12.01411850	      0.50198302
      5.41000000	      6.13113062	      5.64525928	    -11.62542955	     -2.27376772	      0.74588606	      0.05507805	      0.02841815	     -3.77558541	      9.55948936	    -60.38731874	    -11.34448672	    -17.79279948	      0.00000000	      0.99766330	      7.41585234	     -5.01879449	     -6.16024235	      4.88017909	    -20.42610303	      0.00000000	    -19.51641416	    -11.89393822	     -0.21039629
      5.42000000	      6.27404213	      5.47198629	    -11.73254039	     -2.26249614	      0.74729448	      0.05460839	      1.98514255	     -3.29273716	      9.25487836	    -62.28599188	    -10.12139451	    -18.99695145	      0.00000000	     -0.57081711	      7.54294835	     -4.99390972	     -5.36433362	      5.34184988	    -20.19775379	      0.00000000	    -19.60489827	    -11.65185827	     -1.00092367
      5.43000000	      6.39102442	      5.18760559	    -11.68285694	     -2.25126728	      0.74869924	      0.05408428	      3.80065766	     -2.68971726	      8.75971306	    -63.67383896	     -8.47679460	    -19.89261399	      0.00000000	     -2.05937150	      7.52341806	     -5.01370162	     -4.69626285	      5.88303861	    -19.68127218	      0.00000000	    -19.72120458	    -11.25906533	     -1.88906133
      5.44000000	      6.47503514	      4.78264184	    -11.50322038	     -2.24006194	      0.75005124	      0.05351841	      5.47780262	     -1.94978325	      8.13130835	    -64.55923311	     -6.72890434	    -20.65893638	      0.00000000	     -3.54102291	      7.35910662	     -4.78875159	     -4.02705241	      6.40696135	    -19.32765741	      0.00000000	    -19.84480226	    -10.70860149	     -2.78851211
      5.45000000	      6.56586341	      4.35236002	    -11.25087142	     -2.22892685	      0.75130729	      0.05291572	      7.05097815	     -1.23684535	      7.37016730	    -65.03242650	     -4.44443889	    -20.66090264	      0.00000000	     -5.00050075	      7.14725785	     -4.64660031	     -3.39543418	      6.87464157	    -18.85573200	      0.00000000	    -20.01025957	    -10.12514786	     -3.65062079
      5.46000000	      6.65066279	      3.84069080	    -10.90238621	     -2.21787746	      0.75246272	      0.05226979	      8.49243470	     -0.46615363	      6.50008200	    -65.05923032	     -2.16832574	    -20.46674093	      0.00000000	     -6.44162245	      6.82421658	     -4.38912410	     -2.79838722	      7.33016520	    -18.50215803	      0.00000000	    -20.21980471	     -9.43912909	     -4.49125755
      5.47000000	      6.68665493	      3.33283135	    -10.50770781	     -2.20694304	      0.75340411	      0.05161373	      9.90412800	      0.26378928	      5.56292184	    -64.71187932	      0.12367303	    -19.95071239	      0.00000000	     -7.80955381	      6.47165303	     -4.09031575	     -2.21079378	      7.73236062	    -18.20487080	      0.00000000	    -20.40310149	     -8.75072762	     -5.26836640
      5.48000000	      6.71156529	      2.85094688	    -10.09025453	     -2.19614233	      0.75413713	      0.05097899	     11.24643490	      0.93310751	      4.60522302	    -64.00461830	      2.27601795	    -19.31139806	      0.00000000	     -9.13151071	      6.12099935	     -3.78196276	     -1.64433224	      8.08826055	    -17.97741141	      0.00000000	    -20.59710958	     -8.09803825	     -5.96917701
      5.49000000	      6.71906569	      2.42300242	     -9.66465325	     -2.18547191	      0.75462272	      0.05041075	     12.53092881	      1.52028319	      3.65174815	    -62.96069834	      4.18336157	    -18.69855541	      0.00000000	    -10.39445080	      5.79857942	     -3.47586539	     -1.10526316	      8.40518943	    -17.80705062	      0.00000000	    -20.78891673	     -7.52314028	     -6.60002609
      5.50000000	      6.70431802	      2.06957620	     -9.23329716	     -2.17492462	      0.75485758	      0.04988455	     13.75412107	      1.99781482	      2.70930791	    -61.57411672	      5.73927300	    -18.28065167	      0.00000000	    -11.58034234	      5.53089067	     -3.17310605	     -0.61026348	      8.68812588	    -17.67971963	      0.00000000	    -20.96954481	     -7.02790052	     -7.15066482
      5.51000000	      6.63820933	      1.77788097	     -8.77793150	     -2.16446965	      0.75482001	      0.04942896	     14.92363197	      2.40820101	      1.79936849	    -59.83683655	      6.76247981	    -18.31426984	      0.00000000	    -12.63746409	      5.29204034	     -2.89815318	     -0.20955932	      9.02486495	    -17.53396948	      0.00000000	    -21.09951963	     -6.60334382	     -7.66735644
      5.52000000	      6.61933006	      1.59609990	     -8.34416708	     -2.15407666	      0.75458428	      0.04907114	     15.93921019	      2.66793037	      0.93890152	    -57.76949839	      7.64288658	    -18.45290087	      0.00000000	    -13.70346294	      5.16382604	     -2.64057031	      0.16076846	      9.32252893	    -17.41141792	      0.00000000	    -21.28151925	     -6.32654481	     -8.13272572
      5.53000000	      6.61323485	      1.48427457	     -7.91305661	     -2.14369946	      0.75415337	      0.04878945	     16.80188543	      2.83826055	      0.13643260	    -55.34517091	      8.28935126	    -18.82481487	      0.00000000	    -14.74521148	      5.09642659	     -2.37675199	      0.48301834	      9.58848507	    -17.35148514	      0.00000000	    -21.47603085	     -6.13273203	     -8.54066095
